<svg width="48" height="48" viewBox="0 0 48 48" fill="none" xmlns="http://www.w3.org/2000/svg">
<path d="M31.9371 36.0667C32.3253 36.2403 32.7762 36.0559 32.9443 35.6549L35.6826 29.1199C35.8506 28.7189 35.6721 28.2531 35.2839 28.0795C34.8957 27.9059 34.4447 28.0903 34.2767 28.4913L31.8427 34.3002L26.2192 31.7859C25.8309 31.6123 25.38 31.7967 25.212 32.1978C25.0439 32.5988 25.2225 33.0646 25.6107 33.2382L31.9371 36.0667ZM21.827 10.3131L31.5292 35.6318L32.9535 35.0494L23.2514 9.73071L21.827 10.3131Z" fill="#B50000"/>
<path d="M18.6285 19.4477L19.306 19.0787L18.5968 17.6892L17.9381 19.105L18.6285 19.4477ZM23.4956 28.9835L22.8181 29.3525L23.4031 30.4986L24.1229 29.4376L23.4956 28.9835ZM34.9672 13.0497C34.8939 12.6194 34.4967 12.3319 34.0801 12.4076L27.2908 13.6413C26.8741 13.717 26.5958 14.1272 26.669 14.5576C26.7424 14.9879 27.1395 15.2755 27.5561 15.1998L33.5912 14.1032L34.6527 20.3371C34.7261 20.7675 35.1232 21.055 35.5398 20.9793C35.9564 20.9036 36.2348 20.4933 36.1615 20.063L34.9672 13.0497ZM11.9245 35.6834L19.3188 19.7904L17.9381 19.105L10.5437 34.9979L11.9245 35.6834ZM17.9509 19.8167L22.8181 29.3525L24.1732 28.6145L19.306 19.0787L17.9509 19.8167ZM24.1229 29.4376L34.8401 13.6409L33.5855 12.7327L22.8684 28.5294L24.1229 29.4376Z" fill="#18A401"/>
<path d="M13.2766 39.5604H7.14893V8.96704H13.2766" stroke="#B50000" stroke-width="2"/>
<path d="M33.1915 8.96704H39.3192V39.5604H33.1915" stroke="#18A401" stroke-width="2"/>
<path d="M43.0245 9.5469C42.7634 9.5469 42.5313 9.50069 42.3282 9.40828C42.1263 9.31592 41.9668 9.18727 41.8495 9.02243C41.7322 8.8576 41.67 8.66718 41.6627 8.45113H42.3445C42.3506 8.55478 42.3838 8.64534 42.4443 8.72272C42.5047 8.79889 42.5851 8.85823 42.6854 8.90069C42.7858 8.94315 42.8982 8.96436 43.0227 8.96436C43.1557 8.96436 43.2736 8.94062 43.3763 8.8932C43.4791 8.84452 43.5595 8.77705 43.6175 8.69092C43.6756 8.60473 43.7039 8.50546 43.7027 8.39305C43.7039 8.27696 43.6749 8.17452 43.6157 8.08585C43.5565 7.99724 43.4706 7.92793 43.3582 7.87798C43.247 7.82802 43.1128 7.80302 42.9556 7.80302H42.6274V7.26732H42.9556C43.085 7.26732 43.198 7.24422 43.2947 7.19801C43.3927 7.1518 43.4694 7.08687 43.525 7.00322C43.5806 6.91829 43.6078 6.82029 43.6066 6.70915C43.6078 6.60049 43.5842 6.50623 43.5359 6.42627C43.4888 6.34514 43.4217 6.28205 43.3346 6.23711C43.2488 6.19212 43.1479 6.16965 43.0318 6.16965C42.9182 6.16965 42.813 6.19091 42.7163 6.23337C42.6196 6.27583 42.5416 6.33638 42.4823 6.41503C42.4231 6.49246 42.3917 6.58488 42.388 6.69227H41.7407C41.7455 6.47748 41.8053 6.28891 41.9202 6.12661C42.0363 5.96299 42.191 5.8356 42.3844 5.74445C42.5778 5.65204 42.7949 5.60583 43.0354 5.60583C43.2832 5.60583 43.4984 5.65394 43.681 5.7501C43.8647 5.84499 44.0068 5.97301 44.1071 6.1341C44.2074 6.29519 44.2576 6.47311 44.2576 6.6679C44.2588 6.88395 44.1972 7.06503 44.0726 7.21114C43.9494 7.35725 43.7873 7.45278 43.5867 7.49772V7.52768C43.8478 7.56513 44.0479 7.66504 44.1869 7.82739C44.3271 7.98848 44.3966 8.18892 44.3955 8.42866C44.3955 8.64344 44.3362 8.83576 44.2177 9.00561C44.1005 9.17419 43.9385 9.30653 43.7317 9.40269C43.5262 9.49885 43.2905 9.5469 43.0245 9.5469Z" fill="#B50000"/>
</svg>
